<?xml version="1.0" encoding="UTF-8" standalone="no"?>
<svg xmlns:svg="http://www.w3.org/2000/svg" xmlns="http://www.w3.org/2000/svg" version="1.0" width="1350" height="1839.502" xml:space="preserve">
<style type="text/css"><![CDATA[
   text {font-family: Helvetica, Arial, sans-serif; font-size: 100px}
]]></style>
<g transform="translate(50,49.999953)">
<polygon points="504.502,443.496 500.503,440.996 500.503,436.499 621.001,366.499 625,368.999 625,373.496 504.502,443.496" />
<polygon points="504.502,582.5 496.499,587.5 496.499,443.496 500.503,440.996 504.502,443.496 504.502,582.5" />
<polygon points="625,652.5 625,656.997 621.001,659.497 496.499,587.5 504.502,582.5 625,652.5" />
<polygon points="745.498,582.5 749.502,585 749.502,589.497 628.999,659.497 625,656.997 625,652.5 745.498,582.5" />
<polygon points="745.498,443.496 753.496,438.496 753.496,582.5 749.502,585 745.498,582.5 745.498,443.496" />
<polygon points="625,373.496 625,368.999 628.999,366.499 753.496,438.496 745.498,443.496 625,373.496" />
<polygon points="628.999,800.498 625,800.498 621.001,800.498 621.001,659.497 625,656.997 628.999,659.497 628.999,800.498" />
<polygon points="628.999,944.502 625,944.502 621.001,944.502 621.001,800.498 625,800.498 628.999,800.498 628.999,944.502" />
<polygon points="628.999,1085.996 625,1088.496 621.001,1085.996 621.001,944.502 625,944.502 628.999,944.502 628.999,1085.996" />
<polygon points="504.502,1162.998 496.499,1157.998 621.001,1085.996 625,1088.496 625,1092.998 504.502,1162.998" />
<polygon points="528.003,1178.994 523.999,1172.002 623.003,1115 627.002,1122.002 528.003,1178.994" />
<polygon points="504.502,1302.002 500.503,1304.502 496.499,1302.002 496.499,1157.998 504.502,1162.998 504.502,1302.002" />
<polygon points="625,1372.002 625,1380.996 500.503,1308.994 500.503,1304.502 504.502,1302.002 625,1372.002" />
<polygon points="745.498,1302.002 749.502,1304.502 749.502,1308.994 625,1380.996 625,1372.002 745.498,1302.002" />
<polygon points="745.498,1162.998 753.496,1157.998 753.496,1302.002 749.502,1304.502 745.498,1302.002 745.498,1162.998" />
<polygon points="625,1092.998 625,1088.496 628.999,1085.996 753.496,1157.998 745.498,1162.998 625,1092.998" />
<polygon points="875.996,653.496 874.004,656.499 872.002,660 749.502,589.497 749.502,585 753.496,582.5 875.996,653.496" />
<polygon points="373.999,372.5 376.001,368.999 378.003,365.996 500.503,436.499 500.503,440.996 496.499,443.496 373.999,372.5" />
<polygon points="1000.498,725.498 998.506,728.496 996.504,731.997 872.002,660 874.004,656.499 875.996,653.496 1000.498,725.498" />
<polygon points="1122.998,795.498 1122.998,800 1119.004,802.5 996.504,731.997 998.506,728.496 1000.498,725.498 1122.998,795.498" />
<polygon points="1127.5,943.496 1123.496,943.496 1119.502,943.994 1119.004,802.5 1122.998,800 1127.002,806.997 1127.5,943.496" />
<polygon points="1245.498,725 1247.5,727.998 1249.502,731.499 1130.996,800 1122.998,800 1122.998,795.498 1245.498,725" />
<polygon points="1250,868.999 1247.998,872.002 1246.006,875.498 1127.002,806.997 1122.998,800 1130.996,800 1250,868.999" />
<polygon points="249.502,300.498 251.499,297.5 253.501,293.999 378.003,365.996 376.001,368.999 373.999,372.5 249.502,300.498" />
<polygon points="127.002,230.498 127.002,225.996 131.001,223.496 253.501,293.999 251.499,297.5 249.502,300.498 127.002,230.498" />
<polygon points="122.5,82.5 126.499,82.5 130.503,81.997 131.001,223.496 127.002,225.996 123.003,218.999 122.5,82.5" />
<polygon points="4.502,300.996 2.5,297.998 0.503,294.497 118.999,225.996 127.002,225.996 127.002,230.498 4.502,300.996" />
<polygon points="0,156.997 2.002,153.999 3.999,150.498 123.003,218.999 127.002,225.996 118.999,225.996 0,156.997" />
<polygon points="621.001,227.5 625,225.498 628.999,227.5 628.999,366.499 625,368.999 621.001,366.499 621.001,227.5" />
<polygon points="378.003,1379.502 376.001,1375.996 373.999,1372.998 496.499,1302.002 500.503,1304.502 500.503,1308.994 378.003,1379.502" />
<polygon points="875.996,1372.998 874.004,1375.996 872.002,1379.502 749.502,1308.994 749.502,1304.502 753.496,1302.002 875.996,1372.998" />
<polygon points="1000.498,1445 998.506,1447.998 996.504,1451.494 872.002,1379.502 874.004,1375.996 875.996,1372.998 1000.498,1445" />
<polygon points="987.5,1467.002 983.506,1473.994 859.004,1402.002 862.998,1395 987.5,1467.002" />
<polygon points="1127.5,1517.998 1119.502,1522.5 996.504,1451.494 998.506,1447.998 1000.498,1445 1127.5,1517.998" />
<polygon points="1127.5,1662.002 1119.502,1666.494 1119.502,1522.5 1127.5,1517.998 1127.5,1662.002" />
<polygon points="1250,1732.998 1247.998,1735.996 1246.006,1739.502 1119.502,1666.494 1127.5,1662.002 1250,1732.998" />
<polygon points="266.499,1473.994 262.5,1467.002 387.002,1395 391.001,1402.002 266.499,1473.994" />
<polygon points="253.501,1451.494 251.499,1447.998 249.502,1445 373.999,1372.998 376.001,1375.996 378.003,1379.502 253.501,1451.494" />
<polygon points="130.503,1522.5 122.5,1517.998 249.502,1445 251.499,1447.998 253.501,1451.494 130.503,1522.5" />
<polygon points="130.503,1666.494 122.5,1662.002 122.5,1517.998 130.503,1522.5 130.503,1666.494" />
<polygon points="3.999,1739.502 2.002,1735.996 0,1732.998 122.5,1662.002 130.503,1666.494 3.999,1739.502" />
<polygon points="698.506,166.997 703.496,173.496 628.999,227.5 625,225.498 625,220.498 698.506,166.997" />
<polygon points="694.004,7.998 700,0 730.996,95.498 723.496,97.998 694.004,7.998" />
<polygon points="556.001,7.998 550,0 700,0 694.004,7.998 556.001,7.998" />
<polygon points="526.499,98.496 518.999,95.996 550,0 556.001,7.998 526.499,98.496" />
<polygon points="625,220.498 625,225.498 621.001,227.5 545.503,172.998 550.503,166.499 625,220.498" />
<rect width="8" height="114.241" x="571.47198" y="370.37701" transform="matrix(0.4967,0.8679,-0.8679,0.4967,660.7176,-284.3284)" />
<rect width="8" height="114.241" x="571.46899" y="541.37598" transform="matrix(0.4959,-0.8684,0.8684,0.4959,-229.6221,801.4147)" />
<rect width="8" height="114.004" x="720" y="455.996" />
<rect width="8" height="144.004" x="647.00201" y="800.49799" />
<rect width="8" height="144.004" x="595" y="800.49799" />
<rect width="8" height="114.241" x="571.46899" y="1260.8781" transform="matrix(0.4959,-0.8684,0.8684,0.4959,-854.4052,1164.0845)" />
<rect width="8" height="114.004" x="720" y="1175.498" />
<rect width="8" height="143.823" x="945.21997" y="598.58698" transform="matrix(0.4964,-0.8681,0.8681,0.4964,-104.0114,1161.7039)" />
<rect width="8" height="143.82001" x="919.224" y="643.09003" transform="matrix(0.4957,-0.8685,0.8685,0.4957,-155.4015,1162.3545)" />
<rect width="8" height="143.819" x="296.71701" y="283.58899" transform="matrix(-0.4964,0.8681,-0.8681,-0.4964,758.6472,270.8883)" />
<rect width="8" height="143.82001" x="322.72101" y="239.086" transform="matrix(-0.4962,0.8682,-0.8682,-0.4962,758.894,181.627)" />
<rect width="8" height="143.823" x="945.21997" y="1318.089" transform="matrix(0.4964,-0.8681,0.8681,0.4964,-728.6067,1524.0453)" />
<rect width="8" height="143.823" x="296.71899" y="1318.089" transform="matrix(0.4964,0.8681,-0.8681,0.4964,1358.1096,438.9235)" />
<text x="702.502" y="180.0005">O</text>
<text x="469.5005" y="180.0005">O</text>
</g>
</svg>
